<svg fill="none" viewBox="0 0 600 274" width="600" height="274" xmlns="http://www.w3.org/2000/svg">
  <foreignObject x="0" y="0" width="100%" height="100%">
    <div xmlns="http://www.w3.org/1999/xhtml">
      <style>
        .container {
          width: 100%;
          margin: 0;
          padding: 28px;
          box-sizing: border-box;
          display: flex;
          gap: 50px;
          flex-direction: column;
          color: white;
          font-family: 'Arial', sans-serif;
          text-align: center;
        }

        .logosWrapper {
          display: flex;
          justify-content: center;
          align-items: center;
          gap: 48px
        }

        .logoBox {
          width: 193.37px;
          height: 193.37px;
        }

        .logoBoxContent {
          width: 193.37px;
          height: 193.37px;
          background-color: white;
          border: 5px solid #032B4E;
          border-radius: 35px;
          z-index: 2;
          object-fit: contain;
          padding: 20px;
          box-shadow: 10px 10px 0 0 #032B4E;
          box-sizing: border-box;
        }
      </style>

      <div class="container">
        <!-- Logos -->
        <div class="logosWrapper">
          <!-- Deskpro Logo -->
          <div class="logoBox">
            <div class="logoBoxContent">
              <!-- Deskpro Logo Begins -->
              <svg class="deskproLogo" version="1.1" xmlns="http://www.w3.org/2000/svg" width="100%" height="100%"
                viewBox="50 50 350 348">
                <path
                  d="M154.62 205.169V134.658H204.619C218.38 134.658 230.822 136.779 241.918 140.995C253.041 145.237 262.559 151.316 270.5 159.257C278.441 166.939 284.52 176.329 288.762 187.425C291.064 192.986 292.745 198.91 293.883 205.169L337.778 205.221C336.33 192.65 333.381 180.907 328.906 170.017C322.284 153.618 312.895 139.598 300.738 127.959C288.581 116.06 274.018 106.929 257.076 100.566C240.133 94.2292 221.354 91.0476 200.713 91.0476L111.604 91.0993V205.273L154.62 205.169Z"
                  fill="#090C2F" />
                <path
                  d="M293.884 242.701C292.772 249.064 291.065 255.117 288.737 260.833C284.495 271.671 278.416 281.061 270.475 289.001C262.534 296.684 253.016 302.633 241.893 306.849C230.771 311.091 218.355 313.186 204.594 313.186H154.595V242.675L111.579 242.779V356.952L200.74 356.849C221.381 356.849 240.16 353.667 257.102 347.33C274.045 340.993 288.452 331.991 300.351 320.351C312.508 308.453 321.923 294.433 328.519 278.293C333.175 267.222 336.227 255.35 337.727 242.701H293.858H293.884Z"
                  fill="#090C2F" />
              </svg>
              <!-- Deskpro Logo Ends -->
            </div>
            <div class="logoBoxShadow"></div>
          </div>

          <span
            style="font-size: 60px; font-weight: 900; text-shadow: -1px -1px 0px #032B4E, -1px -1px 0px #032B4E, 1px 1px 0px #032B4E, 1px -1px 0px #032B4E, -1px 1px 0px #032B4E, 3px 3px 0px #032B4E">+</span>

          <!-- Third Party Logo -->
          <div class="logoBox">
            <div class="logoBoxContent">
              <!-- Third Party Logo Starts Here -->
                <svg xmlns="http://www.w3.org/2000/svg" fill="black" viewBox="0 0 16 16">
                    <path d="M8 0C3.58 0 0 3.58 0 8c0 3.54 2.29 6.53 5.47 7.59.4.07.55-.17.55-.38 0-.19-.01-.82-.01-1.49-2.01.37-2.53-.49-2.69-.94-.09-.23-.48-.94-.82-1.13-.28-.15-.68-.52-.01-.53.63-.01 1.08.58 1.23.82.72 1.21 1.87.87 2.33.66.07-.52.28-.87.51-1.07-1.78-.2-3.64-.89-3.64-3.95 0-.87.31-1.59.82-2.15-.08-.2-.36-1.02.08-2.12 0 0 .67-.21 2.2.82.64-.18 1.32-.27 2-.27s1.36.09 2 .27c1.53-1.04 2.2-.82 2.2-.82.44 1.1.16 1.92.08 2.12.51.56.82 1.27.82 2.15 0 3.07-1.87 3.75-3.65 3.95.29.25.54.73.54 1.48 0 1.07-.01 1.93-.01 2.2 0 .21.15.46.55.38A8.01 8.01 0 0 0 16 8c0-4.42-3.58-8-8-8" />
                </svg>
              <!-- Third Party Logo Ends Here -->
            </div>
            <div class="logoBoxShadow"></div>
          </div>

        </div>
      </div>
    </div>

  </foreignObject>
</svg>